<svg viewBox="0 0 400 400" fill="none" xmlns="http://www.w3.org/2000/svg">
    <path d="M275 50H125C83.5786 50 50 83.5786 50 125V215C50 240.859 63.0874 263.662 83 277.146V348.573C83 349.52 84.1148 350.026 84.8281 349.404L118.5 320L152 290H275C316.421 290 350 256.421 350 215V125C350 83.5786 316.421 50 275 50Z" fill="url(#paint0_linear_1_24)"/>
    <path fill-rule="evenodd" clip-rule="evenodd" d="M35 125C35 75.2944 75.2944 35 125 35H275C324.706 35 365 75.2944 365 125V215C365 264.706 324.706 305 275 305H157.735L128.507 331.174C128.46 331.216 128.413 331.257 128.366 331.298L94.6946 360.702C94.6945 360.702 94.6945 360.702 94.6944 360.702C84.2789 369.797 68 362.4 68 348.573V284.651C47.8777 268.165 35 243.088 35 215V125ZM125 65C91.8629 65 65 91.8629 65 125V215C65 235.674 75.4428 253.913 91.4104 264.726C95.5314 267.516 98 272.169 98 277.146V317.987L108.563 308.764L141.993 278.826C144.744 276.362 148.307 275 152 275H275C308.137 275 335 248.137 335 215V125C335 91.8629 308.137 65 275 65H125Z" fill="white"/>
    <circle cx="138" cy="176" r="25" fill="#5C0000" fill-opacity="0.25"/>
    <circle cx="204" cy="176" r="25" fill="#5C0000" fill-opacity="0.25"/>
    <circle cx="270" cy="176" r="25" fill="#5C0000" fill-opacity="0.25"/>
    <circle cx="134" cy="169" r="23" fill="white"/>
    <circle cx="200" cy="169" r="23" fill="white"/>
    <circle cx="266" cy="169" r="23" fill="white"/>
    <defs>
    <linearGradient id="paint0_linear_1_24" x1="136.5" y1="-5.90303e-06" x2="327.557" y2="360.718" gradientUnits="userSpaceOnUse">
    <stop stop-color="#FD3E31"/>
    <stop offset="0.425" stop-color="#FD3E31"/>
    <stop offset="1" stop-color="#550A04"/>
    </linearGradient>
    </defs>
</svg>
